<svg width="129" height="52" viewBox="0 0 129 52" fill="none" xmlns="http://www.w3.org/2000/svg">
<path d="M46.374 12.3274V28.6072H42.145V12.3274H46.374Z" fill="#DA373E"/>
<path d="M52.9456 12.3274L55.6752 22.3602H55.7206V12.3274H59.6775V28.6072H55.0374L52.2171 18.5501H52.1718V28.6072H48.2148V12.3274H52.9456Z" fill="#DA373E"/>
<path d="M69.6589 12.3274L73.6158 28.6072H69.1117L68.6795 25.758H65.315L64.8828 28.6072H60.4482L64.3356 12.3274H69.6558H69.6589ZM66.9776 15.6585L65.8168 22.5663H68.1807L67.0199 15.6585H66.9746H66.9776Z" fill="#DA373E"/>
<path d="M80.5079 12.3274C81.312 12.3274 82.0102 12.4577 82.5997 12.7153C83.1922 12.973 83.6788 13.3276 84.0658 13.7762C84.4527 14.2248 84.7368 14.7522 84.9182 15.3615C85.0996 15.9707 85.1903 16.6315 85.1903 17.3438C85.1903 19.0321 84.7399 20.296 83.836 21.1417C82.9322 21.9874 81.6112 22.4057 79.867 22.4057H78.3889V28.6072H74.1599V12.3274H80.5049H80.5079ZM79.1869 19.3503C79.7189 19.3503 80.124 19.1897 80.4051 18.8714C80.6862 18.5532 80.8253 18.05 80.8253 17.365C80.8253 16.0435 80.2782 15.3827 79.1869 15.3827H78.3919V19.3503H79.1869Z" fill="#010101"/>
<path d="M93.1527 12.3274C93.9567 12.3274 94.6429 12.4334 95.2112 12.6456C95.7795 12.8578 96.242 13.1579 96.5987 13.5459C96.9554 13.9338 97.2123 14.3946 97.3725 14.925C97.5328 15.4585 97.6114 16.0344 97.6114 16.6588C97.6114 17.753 97.3907 18.635 96.9524 19.3049C96.511 19.9747 95.8067 20.3839 94.8364 20.5355V20.581C95.8521 20.6719 96.5503 21.0296 96.9282 21.654C97.306 22.2784 97.4965 23.1362 97.4965 24.2304V26.2824C97.4965 26.5097 97.5025 26.728 97.5207 26.9311C97.5358 27.1372 97.5569 27.3221 97.5902 27.4888C97.6204 27.6555 97.6597 27.7858 97.7051 27.8767C97.7655 27.9677 97.826 28.0556 97.8864 28.1404C97.9469 28.2253 98.0466 28.3041 98.1827 28.3799V28.6072H93.6786C93.5728 28.3951 93.4912 28.1435 93.4398 27.8555C93.3854 27.5676 93.3491 27.2766 93.325 26.9886C93.3008 26.7007 93.2857 26.4218 93.2796 26.1551C93.2705 25.8884 93.2675 25.6732 93.2675 25.5064V24.4122C93.2675 23.9576 93.2433 23.5757 93.198 23.2726C93.1527 22.9694 93.0741 22.73 92.9592 22.5542C92.8443 22.3784 92.7023 22.2571 92.5269 22.1905C92.3516 22.1207 92.137 22.0874 91.88 22.0874H90.7646V28.6103H86.5356V12.3274H93.1527ZM91.605 19.2139C92.2095 19.2139 92.6599 19.0351 92.9471 18.6775C93.2343 18.3198 93.3794 17.853 93.3794 17.2741C93.3794 16.589 93.2403 16.1041 92.9592 15.8161C92.6781 15.5282 92.2216 15.3827 91.5838 15.3827H90.7646V19.2139H91.605Z" fill="#010101"/>
<path d="M99.4037 16.5799C99.6001 15.5069 99.9266 14.634 100.383 13.9581C100.836 13.2821 101.438 12.7881 102.179 12.4759C102.922 12.1637 103.832 12.0091 104.908 12.0091C105.984 12.0091 106.894 12.1637 107.638 12.4759C108.382 12.7881 108.98 13.2821 109.433 13.9581C109.887 14.634 110.213 15.51 110.413 16.5799C110.609 17.6529 110.709 18.9472 110.709 20.4688C110.709 21.9904 110.609 23.2847 110.413 24.3577C110.216 25.4307 109.89 26.3036 109.433 26.9795C108.98 27.6555 108.378 28.1404 107.638 28.4284C106.894 28.7163 105.984 28.8618 104.908 28.8618C103.832 28.8618 102.922 28.7163 102.179 28.4284C101.435 28.1404 100.836 27.6585 100.383 26.9795C99.9296 26.3036 99.6032 25.4276 99.4037 24.3577C99.2072 23.2847 99.1074 21.9904 99.1074 20.4688C99.1074 18.9472 99.2072 17.6529 99.4037 16.5799ZM103.521 23.1937C103.551 23.9151 103.614 24.491 103.714 24.9154C103.814 25.3428 103.956 25.6368 104.147 25.8035C104.337 25.9702 104.591 26.0551 104.908 26.0551C105.226 26.0551 105.48 25.9732 105.67 25.8035C105.86 25.6368 106.003 25.3397 106.102 24.9154C106.202 24.491 106.266 23.9151 106.296 23.1937C106.326 22.4723 106.341 21.563 106.341 20.4688C106.341 19.3746 106.326 18.4653 106.296 17.7439C106.266 17.0225 106.202 16.4496 106.102 16.0222C106.003 15.5979 105.86 15.3008 105.67 15.1341C105.48 14.9674 105.226 14.8825 104.908 14.8825C104.591 14.8825 104.337 14.9674 104.147 15.1341C103.956 15.3008 103.814 15.5979 103.714 16.0222C103.614 16.4496 103.551 17.0225 103.521 17.7439C103.491 18.4653 103.475 19.3746 103.475 20.4688C103.475 21.563 103.491 22.4723 103.521 23.1937Z" fill="#010101"/>
<path d="M118.439 15.3827C118.257 15.0493 117.961 14.8795 117.553 14.8795C117.236 14.8795 116.982 14.9644 116.791 15.1311C116.601 15.2978 116.459 15.5948 116.359 16.0192C116.259 16.4466 116.196 17.0195 116.165 17.7408C116.135 18.4622 116.12 19.3716 116.12 20.4658C116.12 21.56 116.135 22.4693 116.165 23.1907C116.196 23.9121 116.259 24.488 116.359 24.9124C116.459 25.3397 116.601 25.6337 116.791 25.8005C116.982 25.9672 117.236 26.052 117.553 26.052C117.81 26.052 118.021 25.9884 118.191 25.858C118.357 25.7307 118.487 25.5125 118.578 25.2094C118.668 24.9063 118.732 24.5001 118.771 23.9879C118.807 23.4787 118.829 22.8361 118.829 22.0601H122.922V23.2695C122.922 24.4092 122.77 25.3458 122.468 26.0733C122.166 26.8037 121.764 27.3766 121.262 27.7949C120.76 28.2132 120.189 28.4951 119.545 28.6375C118.901 28.783 118.236 28.8527 117.556 28.8527C116.374 28.8527 115.404 28.7073 114.645 28.4193C113.886 28.1313 113.297 27.6494 112.871 26.9704C112.444 26.2945 112.154 25.4185 111.994 24.3486C111.834 23.2756 111.755 21.9813 111.755 20.4597C111.755 18.9381 111.849 17.5954 112.039 16.5163C112.23 15.4372 112.55 14.5643 113.007 13.8944C113.46 13.2246 114.062 12.7426 114.802 12.4456C115.546 12.1485 116.462 12 117.553 12C118.508 12 119.318 12.1212 119.986 12.3637C120.654 12.6062 121.195 12.9518 121.613 13.4004C122.03 13.849 122.332 14.3885 122.523 15.0189C122.713 15.6494 122.807 16.3617 122.807 17.1498V18.1773H118.714V17.265C118.714 16.3375 118.623 15.707 118.442 15.3736L118.439 15.3827Z" fill="#010101"/>
<path d="M24.1788 8H11.8212C5.29252 8 0 13.2925 0 19.8212V32.1788C0 38.7075 5.29252 44 11.8212 44H24.1788C30.7075 44 36 38.7075 36 32.1788V19.8212C36 13.2925 30.7075 8 24.1788 8Z" fill="#D23553"/>
<path d="M25.769 18.1065C26.926 18.1065 27.8665 19.0443 27.8665 20.1978C27.8665 21.3513 26.926 22.2891 25.769 22.2891C24.6121 22.2891 23.6716 21.3513 23.6716 20.1978C23.6716 19.0443 24.6121 18.1065 25.769 18.1065ZM18.0451 17C20.1231 17 21.8155 18.686 21.8155 20.7593C21.8155 22.5297 20.5823 24.0166 18.9273 24.4136C18.7886 24.4066 18.6499 24.4025 18.5084 24.4025H17.5831C17.443 24.4025 17.3029 24.4066 17.1656 24.4136C15.5107 24.0166 14.2774 22.5297 14.2774 20.7593C14.2774 18.6874 15.9684 17 18.0479 17H18.0451ZM14.7477 24.8866C14.7311 24.8921 14.713 24.8976 14.6964 24.9046C14.6797 24.87 14.6617 24.8368 14.6437 24.8022C14.6783 24.8313 14.713 24.8589 14.7477 24.8866ZM10.2324 18.1065C11.3893 18.1065 12.3298 19.0443 12.3298 20.1978C12.3298 21.3513 11.3893 22.2891 10.2324 22.2891C9.07543 22.2891 8.13491 21.3513 8.13491 20.1978C8.13491 19.0443 9.07543 18.1065 10.2324 18.1065ZM6 26.9889C6 24.8036 7.78256 23.0263 9.97434 23.0263H10.489C12.0274 23.0263 13.3633 23.9018 14.0236 25.1798C12.7904 25.7469 11.7153 26.5975 10.883 27.6501H6.6617C6.29686 27.6501 6 27.3527 6 26.9889ZM11.6293 34.0927C10.9731 34.0927 10.4391 33.5602 10.4391 32.9059C10.4391 28.9793 13.6435 25.7842 17.5818 25.7842H18.507C19.6723 25.7842 20.7723 26.0664 21.7448 26.5615L18.1533 30.1425L17.4583 29.4495C16.4873 28.4813 14.9114 28.4813 13.9404 29.4495C12.9693 30.4177 12.9693 31.9889 13.9404 32.9571L15.0792 34.0927H11.6293ZM24.4595 34.0927H21.2273L25.1184 30.213C25.4597 31.0443 25.6497 31.953 25.6497 32.9059C25.6497 33.5602 25.1157 34.0927 24.4595 34.0927ZM25.6095 28.0194L19.1063 34.5035C19.0693 34.5403 19.0323 34.5772 18.9953 34.6141C18.4793 35.1286 17.6428 35.1286 17.1268 34.6141L14.6603 32.1549C14.1443 31.6404 14.1443 30.8064 14.6603 30.2918C15.1763 29.7773 16.0128 29.7773 16.5289 30.2918L18.0617 31.8202L23.7409 26.1577C24.257 25.6432 25.0935 25.6432 25.6095 26.1577C26.1255 26.6722 26.1255 27.5048 25.6095 28.0194ZM29.3383 27.6501H27.1562C27.3435 26.8437 27.1257 25.9627 26.4945 25.3333C25.5235 24.3651 23.9476 24.3651 22.9766 25.3333L22.7657 25.5436C22.516 25.3997 22.258 25.2669 21.9917 25.148C22.6575 23.888 23.9837 23.0277 25.5096 23.0277H26.0257C28.2174 23.0277 30 24.805 30 26.9903C30 27.3541 29.7031 27.6501 29.3383 27.6501Z" fill="white"/>
<path d="M66.4399 35.2486H70.1636V36.6409H66.4399V35.2486ZM66.5725 38.4309H70.7824V39.8674H64.7935V32.1326H70.6388V33.5691H66.5725V38.4309Z" fill="#989898"/>
<path d="M60.2883 40C59.6695 40 59.0765 39.919 58.5093 39.7569C57.9421 39.5875 57.4854 39.3702 57.1392 39.105L57.7469 37.7569C58.0784 37.9926 58.4688 38.1878 58.9182 38.3425C59.3749 38.4899 59.8353 38.5635 60.2994 38.5635C60.653 38.5635 60.9366 38.5304 61.1502 38.4641C61.3712 38.3904 61.5333 38.291 61.6364 38.1657C61.7395 38.0405 61.7911 37.8969 61.7911 37.7348C61.7911 37.5285 61.7101 37.3665 61.548 37.2486C61.3859 37.1234 61.1723 37.0239 60.9071 36.9503C60.6419 36.8692 60.3473 36.7956 60.0231 36.7293C59.7064 36.6556 59.3859 36.5672 59.0618 36.4641C58.7451 36.361 58.4541 36.2284 58.1889 36.0663C57.9237 35.9042 57.7064 35.6906 57.5369 35.4254C57.3749 35.1602 57.2939 34.8214 57.2939 34.4088C57.2939 33.9669 57.4117 33.5654 57.6474 33.2044C57.8905 32.8361 58.2515 32.5451 58.7303 32.3315C59.2165 32.1105 59.8242 32 60.5535 32C61.0397 32 61.5185 32.0589 61.99 32.1768C62.4614 32.2873 62.8777 32.4567 63.2386 32.6851L62.6861 34.0442C62.3252 33.8379 61.9642 33.6869 61.6032 33.5912C61.2423 33.488 60.8887 33.4365 60.5425 33.4365C60.1963 33.4365 59.9126 33.477 59.6916 33.558C59.4707 33.639 59.3123 33.7459 59.2165 33.8785C59.1207 34.0037 59.0729 34.151 59.0729 34.3204C59.0729 34.5193 59.1539 34.6814 59.316 34.8066C59.478 34.9245 59.6916 35.0203 59.9568 35.0939C60.222 35.1676 60.513 35.2413 60.8298 35.3149C61.1539 35.3886 61.4743 35.4733 61.7911 35.5691C62.1152 35.6648 62.4099 35.7937 62.6751 35.9558C62.9403 36.1179 63.1539 36.3315 63.316 36.5967C63.4854 36.8619 63.5701 37.1971 63.5701 37.6022C63.5701 38.0368 63.4486 38.4346 63.2055 38.7956C62.9624 39.1565 62.5977 39.4475 62.1115 39.6685C61.6327 39.8895 61.025 40 60.2883 40Z" fill="#989898"/>
<path d="M49.6541 39.8674V32.1326H53.0021C53.6946 32.1326 54.2913 32.2468 54.7922 32.4751C55.2931 32.6961 55.6798 33.0166 55.9524 33.4365C56.225 33.8564 56.3612 34.3573 56.3612 34.9392C56.3612 35.5138 56.225 36.0111 55.9524 36.4309C55.6798 36.8508 55.2931 37.175 54.7922 37.4033C54.2913 37.6243 53.6946 37.7348 53.0021 37.7348H50.6485L51.4441 36.9282V39.8674H49.6541ZM51.4441 37.1271L50.6485 36.2762H52.9027C53.4552 36.2762 53.8677 36.1584 54.1402 35.9227C54.4128 35.6869 54.5491 35.3591 54.5491 34.9392C54.5491 34.512 54.4128 34.1805 54.1402 33.9448C53.8677 33.709 53.4552 33.5912 52.9027 33.5912H50.6485L51.4441 32.7403V37.1271Z" fill="#989898"/>
<path d="M45.1492 40C44.5304 40 43.9374 39.919 43.3702 39.7569C42.8029 39.5875 42.3462 39.3702 42 39.105L42.6077 37.7569C42.9392 37.9926 43.3297 38.1878 43.779 38.3425C44.2357 38.4899 44.6961 38.5635 45.1602 38.5635C45.5138 38.5635 45.7974 38.5304 46.011 38.4641C46.232 38.3904 46.3941 38.291 46.4972 38.1657C46.6004 38.0405 46.6519 37.8969 46.6519 37.7348C46.6519 37.5285 46.5709 37.3665 46.4088 37.2486C46.2468 37.1234 46.0331 37.0239 45.768 36.9503C45.5028 36.8692 45.2081 36.7956 44.884 36.7293C44.5672 36.6556 44.2468 36.5672 43.9227 36.4641C43.6059 36.361 43.3149 36.2284 43.0497 36.0663C42.7845 35.9042 42.5672 35.6906 42.3978 35.4254C42.2357 35.1602 42.1547 34.8214 42.1547 34.4088C42.1547 33.9669 42.2726 33.5654 42.5083 33.2044C42.7514 32.8361 43.1123 32.5451 43.5912 32.3315C44.0773 32.1105 44.6851 32 45.4144 32C45.9006 32 46.3794 32.0589 46.8508 32.1768C47.3223 32.2873 47.7385 32.4567 48.0994 32.6851L47.547 34.0442C47.186 33.8379 46.825 33.6869 46.4641 33.5912C46.1031 33.488 45.7495 33.4365 45.4033 33.4365C45.0571 33.4365 44.7735 33.477 44.5525 33.558C44.3315 33.639 44.1731 33.7459 44.0773 33.8785C43.9816 34.0037 43.9337 34.151 43.9337 34.3204C43.9337 34.5193 44.0147 34.6814 44.1768 34.8066C44.3389 34.9245 44.5525 35.0203 44.8177 35.0939C45.0829 35.1676 45.3738 35.2413 45.6906 35.3149C46.0147 35.3886 46.3352 35.4733 46.6519 35.5691C46.9761 35.6648 47.2707 35.7937 47.5359 35.9558C47.8011 36.1179 48.0147 36.3315 48.1768 36.5967C48.3462 36.8619 48.4309 37.1971 48.4309 37.6022C48.4309 38.0368 48.3094 38.4346 48.0663 38.7956C47.8232 39.1565 47.4586 39.4475 46.9724 39.6685C46.4936 39.8895 45.8858 40 45.1492 40Z" fill="#989898"/>
</svg>
